<svg width="24" height="24" viewBox="0 0 24 24" fill="none" xmlns="http://www.w3.org/2000/svg">
<path d="M2.625 14.5256C2.79076 14.5256 2.94973 14.5938 3.06694 14.7152C3.18415 14.8366 3.25 15.0013 3.25 15.173V18.4102C3.25 18.7537 3.3817 19.083 3.61612 19.3259C3.85054 19.5687 4.16848 19.7051 4.5 19.7051H19.5C19.8315 19.7051 20.1495 19.5687 20.3839 19.3259C20.6183 19.083 20.75 18.7537 20.75 18.4102V15.173C20.75 15.0013 20.8158 14.8366 20.9331 14.7152C21.0503 14.5938 21.2092 14.5256 21.375 14.5256C21.5408 14.5256 21.6997 14.5938 21.8169 14.7152C21.9342 14.8366 22 15.0013 22 15.173V18.4102C22 19.0971 21.7366 19.7558 21.2678 20.2415C20.7989 20.7272 20.163 21 19.5 21H4.5C3.83696 21 3.20107 20.7272 2.73223 20.2415C2.26339 19.7558 2 19.0971 2 18.4102V15.173C2 15.0013 2.06585 14.8366 2.18306 14.7152C2.30027 14.5938 2.45924 14.5256 2.625 14.5256Z" fill="#8C8C8C"/>
<path d="M11.5575 3.19021C11.6156 3.12992 11.6845 3.08208 11.7605 3.04944C11.8364 3.0168 11.9178 3 12 3C12.0822 3 12.1636 3.0168 12.2395 3.04944C12.3155 3.08208 12.3844 3.12992 12.4425 3.19021L16.1925 7.07485C16.3099 7.19642 16.3758 7.36131 16.3758 7.53324C16.3758 7.70517 16.3099 7.87006 16.1925 7.99163C16.0751 8.1132 15.916 8.1815 15.75 8.1815C15.584 8.1815 15.4249 8.1132 15.3075 7.99163L12.625 5.21152V16.5974C12.625 16.7691 12.5592 16.9338 12.4419 17.0552C12.3247 17.1766 12.1658 17.2448 12 17.2448C11.8342 17.2448 11.6753 17.1766 11.5581 17.0552C11.4408 16.9338 11.375 16.7691 11.375 16.5974V5.21152L8.6925 7.99163C8.63439 8.05183 8.5654 8.09958 8.48948 8.13215C8.41356 8.16473 8.33218 8.1815 8.25 8.1815C8.16782 8.1815 8.08644 8.16473 8.01052 8.13215C7.9346 8.09958 7.86561 8.05183 7.8075 7.99163C7.74939 7.93143 7.70329 7.85997 7.67185 7.78132C7.6404 7.70267 7.62421 7.61837 7.62421 7.53324C7.62421 7.44811 7.6404 7.36381 7.67185 7.28516C7.70329 7.20651 7.74939 7.13505 7.8075 7.07485L11.5575 3.19021Z" fill="#8C8C8C"/>
</svg>
