<svg width="24" height="24" viewBox="0 0 24 24" fill="none" xmlns="http://www.w3.org/2000/svg">
<path d="M12.6019 9.7875C12.6019 10.2351 12.428 10.6643 12.1186 10.9807C11.8092 11.2972 11.3895 11.475 10.9519 11.475C10.5143 11.475 10.0946 11.2972 9.78514 10.9807C9.47571 10.6643 9.30187 10.2351 9.30187 9.7875C9.30187 9.33995 9.47571 8.91073 9.78514 8.59426C10.0946 8.27779 10.5143 8.1 10.9519 8.1C11.3895 8.1 11.8092 8.27779 12.1186 8.59426C12.428 8.91073 12.6019 9.33995 12.6019 9.7875Z" fill="#8C8C8C"/>
<path d="M16.3555 3H7.55547C6.97199 3 6.41241 3.23705 5.99983 3.65901C5.58725 4.08097 5.35547 4.65326 5.35547 5.25V18.75C5.35547 19.3467 5.58725 19.919 5.99983 20.341C6.41241 20.7629 6.97199 21 7.55547 21H16.3555C16.9389 21 17.4985 20.7629 17.9111 20.341C18.3237 19.919 18.5555 19.3467 18.5555 18.75V5.25C18.5555 4.65326 18.3237 4.08097 17.9111 3.65901C17.4985 3.23705 16.9389 3 16.3555 3ZM6.45547 5.25C6.45547 4.95163 6.57136 4.66548 6.77765 4.4545C6.98394 4.24353 7.26373 4.125 7.55547 4.125H16.3555C16.6472 4.125 16.927 4.24353 17.1333 4.4545C17.3396 4.66548 17.4555 4.95163 17.4555 5.25V14.25L15.1642 11.9066C15.1077 11.8489 15.0396 11.8045 14.9647 11.7765C14.8897 11.7484 14.8097 11.7374 14.7301 11.7441C14.6506 11.7508 14.5734 11.7752 14.504 11.8155C14.4346 11.8558 14.3746 11.9111 14.3282 11.9775L11.9555 15.375L9.57397 13.9125C9.46867 13.848 9.34531 13.8214 9.22352 13.8369C9.10173 13.8524 8.98851 13.9091 8.90187 13.998L6.45547 16.5V5.25Z" fill="#8C8C8C"/>
</svg>
