<svg id="Layer_1" height="512" viewBox="0 0 512 512" width="512" xmlns="http://www.w3.org/2000/svg" data-name="Layer 1"><path d="m302.528 178.814 40.531-40.568-40.531-40.567a21.685 21.685 0 1 1 30.654-30.679l40.583 40.567 40.582-40.567a21.685 21.685 0 0 1 30.653 30.679l-40.583 40.567 40.583 40.568a21.685 21.685 0 1 1 -30.655 30.68l-40.582-40.563-40.583 40.563a21.685 21.685 0 0 1 -30.654-30.68zm-182.183-178.814h-2.19a35.907 35.907 0 0 0 -12.149 2.5l-1.075.425c-16.61 6.568-65.4 24.609-77.489 36.7-17.978 17.968-26.235 40.314-27.342 65.575-1.232 28.227 6.724 57.616 17.22 83.576 26.614 65.819 76.518 129.635 126.39 179.49s113.7 99.788 179.534 126.4c24.332 9.834 51.382 17.334 77.798 17.334q2.88 0 5.76-.122c25.255-1.1 47.617-9.342 65.584-27.327 12.189-12.2 30.1-60.722 36.655-77.434l.116-.3.445-1.043a35.449 35.449 0 0 0 -15.52-43.73l-87.562-50.544a35.749 35.749 0 0 0 -48.755 13.051c-8.651 15.024-21.793 27.188-39.225 30.751a57.479 57.479 0 0 1 -47.365-10.64c-19.462-14.622-38.026-31.577-55.226-48.785-17.151-17.158-34.041-35.665-48.623-55.068a57.34 57.34 0 0 1 -10.607-47.394c3.587-17.378 15.736-30.5 30.71-39.153a35.756 35.756 0 0 0 13.043-48.8l-50.51-87.562a35.379 35.379 0 0 0 -29.617-17.9z" fill-rule="evenodd"/></svg>