<svg height="512" viewBox="0 0 32 32" width="512" xmlns="http://www.w3.org/2000/svg"><g id="_12-Outgoing-Call" data-name="12-Outgoing-Call"><path d="m27.82 20.62-4.41-1.26a3 3 0 0 0 -2.95.76l-2.39 2.39a17.13 17.13 0 0 1 -8.58-8.58l2.39-2.39a3 3 0 0 0 .76-2.95l-1.26-4.41a3 3 0 0 0 -2.89-2.18h-3.49a3 3 0 0 0 -3 3v2a22.82 22.82 0 0 0 6.74 16.26 22.82 22.82 0 0 0 16.26 6.74h2a3 3 0 0 0 3-3v-3.49a3 3 0 0 0 -2.18-2.89z"/><path d="m29 2h-6a1 1 0 0 0 0 2h3.59l-8.3 8.29a1 1 0 0 0 0 1.42 1 1 0 0 0 1.42 0l8.29-8.3v3.59a1 1 0 0 0 2 0v-6a1 1 0 0 0 -1-1z"/></g></svg>