<svg id="Layer_1" height="512" viewBox="0 0 512 512" width="512" xmlns="http://www.w3.org/2000/svg" data-name="Layer 1"><circle cx="256" cy="256" fill="#f44336" r="256"/><path d="m285.534 207.005 25.729-25.751-25.729-25.754a13.765 13.765 0 0 1 19.459-19.475l25.76 25.751 25.761-25.751a13.765 13.765 0 0 1 19.458 19.475l-25.76 25.75 25.76 25.751a13.765 13.765 0 1 1 -19.458 19.475l-25.761-25.748-25.76 25.748a13.765 13.765 0 0 1 -19.459-19.475zm-115.643-113.505h-1.391a22.793 22.793 0 0 0 -7.712 1.588l-.682.27c-10.543 4.169-41.512 15.621-49.188 23.294-11.411 11.408-16.653 25.593-17.352 41.625-.783 17.918 4.267 36.573 10.93 53.052 16.893 41.779 48.571 82.287 80.228 113.933s72.176 63.338 113.963 80.238c15.443 6.24 32.613 11 49.381 11q1.828 0 3.657-.078c16.03-.7 30.225-5.929 41.629-17.346 7.738-7.746 19.107-38.544 23.268-49.152l.074-.189.282-.662a22.5 22.5 0 0 0 -9.851-27.758l-55.582-32.089a22.69 22.69 0 0 0 -30.947 8.285c-5.492 9.537-13.834 17.258-24.9 19.519a36.484 36.484 0 0 1 -30.066-6.754 334.961 334.961 0 0 1 -35.056-30.967 335.186 335.186 0 0 1 -30.864-34.955 36.4 36.4 0 0 1 -6.733-30.084c2.277-11.031 9.989-19.362 19.494-24.853a22.7 22.7 0 0 0 8.279-30.977l-32.062-55.579a22.456 22.456 0 0 0 -18.799-11.361z" fill="#fff" fill-rule="evenodd"/></svg>