<svg width="24" height="24" viewBox="0 0 24 24" fill="none" xmlns="http://www.w3.org/2000/svg">
<path d="M12 20.75C9.67936 20.75 7.45376 19.8281 5.81282 18.1872C4.17187 16.5462 3.25 14.3206 3.25 12C3.25 9.67936 4.17187 7.45376 5.81282 5.81282C7.45376 4.17187 9.67936 3.25 12 3.25C14.3206 3.25 16.5462 4.17187 18.1872 5.81282C19.8281 7.45376 20.75 9.67936 20.75 12C20.75 14.3206 19.8281 16.5462 18.1872 18.1872C16.5462 19.8281 14.3206 20.75 12 20.75ZM12 22C14.6522 22 17.1957 20.9464 19.0711 19.0711C20.9464 17.1957 22 14.6522 22 12C22 9.34784 20.9464 6.8043 19.0711 4.92893C17.1957 3.05357 14.6522 2 12 2C9.34784 2 6.8043 3.05357 4.92893 4.92893C3.05357 6.8043 2 9.34784 2 12C2 14.6522 3.05357 17.1957 4.92893 19.0711C6.8043 20.9464 9.34784 22 12 22Z" fill="#8C8C8C"/>
<path d="M17.4138 13.875C17.5235 14.065 17.5812 14.2806 17.5812 14.5C17.5812 14.7194 17.5235 14.935 17.4138 15.125C16.8653 16.0755 16.0762 16.8647 15.1258 17.4133C14.1754 17.9619 13.0973 18.2504 12 18.25C10.9029 18.2502 9.82503 17.9615 8.8749 17.413C7.92476 16.8644 7.13584 16.0753 6.5875 15.125C6.47784 14.9351 6.42009 14.7196 6.42003 14.5003C6.41997 14.281 6.47762 14.0655 6.58718 13.8756C6.69674 13.6856 6.85435 13.5278 7.0442 13.4179C7.23405 13.3081 7.44944 13.2502 7.66875 13.25H16.3313C16.5507 13.25 16.7662 13.3078 16.9562 13.4175C17.1463 13.5272 17.304 13.685 17.4138 13.875ZM10.75 10.125C10.75 11.16 10.19 10.125 9.5 10.125C8.81 10.125 8.25 11.16 8.25 10.125C8.25 9.09 8.81 8.25 9.5 8.25C10.19 8.25 10.75 9.09 10.75 10.125ZM15.75 10.125C15.75 11.16 15.19 10.125 14.5 10.125C13.81 10.125 13.25 11.16 13.25 10.125C13.25 9.09 13.81 8.25 14.5 8.25C15.19 8.25 15.75 9.09 15.75 10.125Z" fill="#8C8C8C"/>
</svg>
