<svg width="19" height="19" viewBox="0 0 19 19" fill="none" xmlns="http://www.w3.org/2000/svg">
<path fill-rule="evenodd" clip-rule="evenodd" d="M5.29725 1.11753C5.44623 0.912693 5.68422 0.791504 5.9375 0.791504H12.2708C12.5241 0.791504 12.7621 0.912696 12.9111 1.11754C12.2645 1.58777 12.2315 1.61179 12.9111 1.11754L12.913 1.12017L12.9159 1.12426L12.9249 1.13679C12.9322 1.14706 12.942 1.16114 12.9543 1.1789C12.9788 1.21441 13.0128 1.26469 13.0543 1.32867C13.1374 1.45652 13.251 1.6397 13.3796 1.86959C13.6359 2.32776 13.9564 2.98001 14.2106 3.75604C14.4568 4.50721 14.6458 5.38953 14.6458 6.33317C14.6458 7.10944 14.4804 7.85436 14.1832 8.53124C13.4319 10.2429 11.8286 11.5364 9.89583 11.8177V16.6248H13.0625C13.4997 16.6248 13.8542 16.9793 13.8542 17.4165C13.8542 17.8537 13.4997 18.2082 13.0625 18.2082H5.14583C4.70861 18.2082 4.35417 17.8537 4.35417 17.4165C4.35417 16.9793 4.70861 16.6248 5.14583 16.6248H8.3125V11.8187C6.46383 11.5542 4.91052 10.3774 4.12171 8.76162C3.76331 8.02738 3.5625 7.20257 3.5625 6.33317C3.5625 5.27823 3.7988 4.29918 4.08793 3.493C4.34001 2.79018 4.63768 2.20366 4.87244 1.79215C4.99018 1.58576 5.09308 1.42169 5.16803 1.30715C5.20553 1.24983 5.23612 1.20479 5.25818 1.17292C5.26921 1.15698 5.27811 1.14432 5.28469 1.13505L5.29279 1.12371L5.29549 1.11997L5.29649 1.11859L5.29725 1.11753ZM6.36654 2.37484C6.33013 2.43476 6.29021 2.50224 6.24772 2.57672C6.04681 2.92889 5.79229 3.43093 5.57832 4.02751M6.36654 2.37484H11.8418C11.8887 2.45197 11.9413 2.5416 11.9978 2.64257C12.218 3.03623 12.4913 3.59365 12.706 4.24903C12.8617 4.72424 12.9839 5.24254 13.0356 5.7813C12.785 5.85665 12.4611 5.93915 12.0979 5.9965C11.2309 6.1334 10.2667 6.10748 9.51148 5.65432C8.28757 4.91998 6.87671 4.9459 5.86351 5.10588C5.64538 5.14032 5.43976 5.1819 5.25099 5.22609C5.32902 4.80358 5.44473 4.4 5.57832 4.02751M5.54454 8.06699C5.36567 7.70053 5.24163 7.30211 5.18346 6.88183L5.54454 8.06699ZM5.18346 6.88183C5.43256 6.80735 5.75238 6.72637 6.11045 6.66984C6.97745 6.53294 7.94159 6.55886 8.69686 7.01202C9.92076 7.74636 11.3316 7.72044 12.3448 7.56046C12.5396 7.5297 12.7245 7.49325 12.8962 7.45432C12.8507 7.60473 12.7962 7.75177 12.7334 7.8948C12.1186 9.29555 10.7182 10.2915 9.10417 10.2915C7.54126 10.2915 6.18838 9.38574 5.54454 8.06699" fill="#E94057"/>
</svg>
