<svg width="19" height="19" viewBox="0 0 19 19" fill="none" xmlns="http://www.w3.org/2000/svg">
<path d="M6.33332 9.49984C6.77055 9.49984 7.12499 9.85428 7.12499 10.2915V11.0832H7.91666C8.35388 11.0832 8.70832 11.4376 8.70832 11.8748C8.70832 12.3121 8.35388 12.6665 7.91666 12.6665H7.12499V13.4582C7.12499 13.8954 6.77055 14.2498 6.33332 14.2498C5.8961 14.2498 5.54166 13.8954 5.54166 13.4582V12.6665H4.74999C4.31276 12.6665 3.95832 12.3121 3.95832 11.8748C3.95832 11.4376 4.31276 11.0832 4.74999 11.0832H5.54166V10.2915C5.54166 9.85428 5.8961 9.49984 6.33332 9.49984Z" fill="#E94057"/>
<path fill-rule="evenodd" clip-rule="evenodd" d="M12.6667 9.49984C11.355 9.49984 10.2917 10.5632 10.2917 11.8748C10.2917 13.1865 11.355 14.2498 12.6667 14.2498C13.9783 14.2498 15.0417 13.1865 15.0417 11.8748C15.0417 10.5632 13.9783 9.49984 12.6667 9.49984ZM11.875 11.8748C11.875 11.4376 12.2294 11.0832 12.6667 11.0832C13.1039 11.0832 13.4583 11.4376 13.4583 11.8748C13.4583 12.3121 13.1039 12.6665 12.6667 12.6665C12.2294 12.6665 11.875 12.3121 11.875 11.8748Z" fill="#E94057"/>
<path fill-rule="evenodd" clip-rule="evenodd" d="M12.6667 0.791504C13.1039 0.791504 13.4583 1.14595 13.4583 1.58317V3.84508C13.4583 4.2823 13.1039 4.63674 12.6667 4.63674H10.2917V6.33317H12.6667C15.7272 6.33317 18.2083 8.81426 18.2083 11.8748C18.2083 14.9354 15.7272 17.4165 12.6667 17.4165H6.33332C3.27275 17.4165 0.791656 14.9354 0.791656 11.8748C0.791656 8.81426 3.27275 6.33317 6.33332 6.33317H8.70832V3.84508C8.70832 3.40785 9.06276 3.05341 9.49999 3.05341H11.875V1.58317C11.875 1.14595 12.2294 0.791504 12.6667 0.791504ZM6.33332 7.9165C4.1472 7.9165 2.37499 9.68871 2.37499 11.8748C2.37499 14.061 4.1472 15.8332 6.33332 15.8332H12.6667C14.8528 15.8332 16.625 14.061 16.625 11.8748C16.625 9.68871 14.8528 7.9165 12.6667 7.9165H6.33332Z" fill="#E94057"/>
</svg>
