<svg width="19" height="19" viewBox="0 0 19 19" fill="none" xmlns="http://www.w3.org/2000/svg">
<path fill-rule="evenodd" clip-rule="evenodd" d="M16.7193 0.961487C16.9097 1.11161 17.0208 1.34071 17.0208 1.58318V4.78318C17.0211 4.79442 17.0211 4.80563 17.0208 4.8168V13.6165C17.0208 14.8407 16.0284 15.8332 14.8042 15.8332H13.2604C12.0581 15.8332 11.0833 14.8585 11.0833 13.6561C11.0833 12.4537 12.0581 11.479 13.2604 11.479H15.4375V5.80031L7.12501 7.76838V15.1998C7.12501 16.4241 6.13256 17.4165 4.90834 17.4165H3.76043C2.55806 17.4165 1.58334 16.4418 1.58334 15.2394C1.58334 14.0371 2.55806 13.0623 3.76043 13.0623H5.54168V7.15839C5.54144 7.14716 5.54144 7.13596 5.54168 7.1248V3.95818C5.54168 3.59212 5.79264 3.2738 6.14859 3.18837L16.0444 0.813371C16.2802 0.756785 16.5289 0.811367 16.7193 0.961487ZM7.12501 6.14127L15.4375 4.17321V2.58733L7.12501 4.58233V6.14127ZM5.54168 14.6457H3.76043C3.43251 14.6457 3.16668 14.9115 3.16668 15.2394C3.16668 15.5673 3.43251 15.8332 3.76043 15.8332H4.90834C5.25811 15.8332 5.54168 15.5496 5.54168 15.1998V14.6457ZM15.4375 13.0623H13.2604C12.9325 13.0623 12.6667 13.3282 12.6667 13.6561C12.6667 13.984 12.9325 14.2498 13.2604 14.2498H14.8042C15.1539 14.2498 15.4375 13.9663 15.4375 13.6165V13.0623Z" fill="#E94057"/>
</svg>
