<svg width="19" height="19" viewBox="0 0 19 19" fill="none" xmlns="http://www.w3.org/2000/svg">
<path fill-rule="evenodd" clip-rule="evenodd" d="M14.6458 2.37484C13.99 2.37484 13.4583 2.9065 13.4583 3.56234C13.4583 4.21818 13.99 4.74984 14.6458 4.74984C15.3017 4.74984 15.8333 4.21818 15.8333 3.56234C15.8333 2.9065 15.3017 2.37484 14.6458 2.37484ZM11.875 3.56234C11.875 2.03205 13.1155 0.791504 14.6458 0.791504C16.1761 0.791504 17.4167 2.03205 17.4167 3.56234C17.4167 5.09263 16.1761 6.33317 14.6458 6.33317C13.1155 6.33317 11.875 5.09263 11.875 3.56234ZM7.13197 3.16653C7.44901 3.16933 7.73382 3.36101 7.85576 3.65368L11.0009 11.202L11.9156 8.45782C12.0134 8.16452 12.273 7.95497 12.5803 7.92123C12.8876 7.8875 13.1864 8.03575 13.3455 8.30086L18.0955 16.2175C18.2422 16.4621 18.2461 16.7667 18.1056 17.0149C17.965 17.2631 17.7019 17.4165 17.4167 17.4165H1.58333C1.31616 17.4165 1.06701 17.2818 0.920776 17.0582C0.774542 16.8346 0.750948 16.5523 0.858034 16.3075L6.3997 3.64086C6.52678 3.35038 6.81492 3.16374 7.13197 3.16653ZM2.7938 15.8332H16.0184L12.8734 10.5914L11.8344 13.7085C11.73 14.0217 11.4422 14.2373 11.1122 14.2493C10.7823 14.2614 10.4795 14.0674 10.3526 13.7627L7.10723 5.97388L2.7938 15.8332Z" fill="white"/>
</svg>
