<svg height="512" viewBox="0 0 64 64" width="512" xmlns="http://www.w3.org/2000/svg"><g id="Call_Aprrove" data-name="Call Aprrove"><path d="m57.00342 44.834c-4.07608-1.80636-8.782-4.18675-12.90723-6.01074a1.64678 1.64678 0 0 0 -1.87012.418l-4.87744 5.81885a25.93394 25.93394 0 0 1 -9.77441-5.68115 29.0376 29.0376 0 0 1 -8.09622-13.4605l5.19238-5.64893a1.736 1.736 0 0 0 .26611-1.95312l-5.36129-12.87989-.05274-.10742a1.62378 1.62378 0 0 0 -1.08984-.81982 11.04391 11.04391 0 0 0 -7.8794 1.67529c-5.59717 4.45943-5.38134 14.36621-2.81201 21.68457 3.1709 9.03027 9.6709 17.57178 18.30274 24.05029 8.1033 6.0821 18.24262 10.92067 26.49707 5.106 3.14648-2.21582 5.082-5.937 5.44726-10.44092a1.70389 1.70389 0 0 0 -.98486-1.75051zm-1.021 1.73487a15.64328 15.64328 0 0 1 -.29968 1.87622l-13.35089-6.2207 1.21942-1.45484c3.94548 1.75645 8.43989 4.02074 12.43115 5.7993zm-38.15967-40.13723 5.25245 12.61816-1.38764 1.50959-5.97912-14.13672a8.16861 8.16861 0 0 1 2.11431.00897zm33.5669 48.959c-5.95365 4.19236-14.07665 2.4868-24.14551-5.07082-8.31836-6.24365-14.57471-14.45214-17.61621-23.11328-2.34229-6.67236-2.66211-15.60693 2.17139-19.45754a5.90138 5.90138 0 0 1 1.90893-.92151l6.49219 15.34974-2.29614 2.498a1.69145 1.69145 0 0 0 -.39991 1.61182 31.07248 31.07248 0 0 0 8.71241 14.56061 27.919 27.919 0 0 0 10.81689 6.208 1.61957 1.61957 0 0 0 1.65967-.49023l2.30878-2.75452 14.11956 6.57886a10.52482 10.52482 0 0 1 -3.73205 5.00086z"/><path d="m36.81738 28.10205-2.69138-3.05469a1.00019 1.00019 0 0 1 1.501-1.32226l1.94092 2.20312 5.6792-6.44531a1.00019 1.00019 0 0 1 1.501 1.32227l-6.42969 7.29687a1.00126 1.00126 0 0 1 -1.50105 0z"/><path d="m39.437 33.94482a10.15259 10.15259 0 1 1 10.15284-10.15234 10.16368 10.16368 0 0 1 -10.15284 10.15234zm0-18.30517a8.15259 8.15259 0 1 0 8.15283 8.15283 8.16181 8.16181 0 0 0 -8.15283-8.15283z"/></g></svg>