<svg width="340" height="408" viewBox="0 0 340 408" fill="none" xmlns="http://www.w3.org/2000/svg">
<path d="M311.411 264.703L167.919 407C113.733 345.488 145.341 288.17 167.919 267.2L239.163 197.799C289.753 138.682 263.858 83.3589 242.198 60.0833L239.163 57C240.16 57.9541 241.174 58.9829 242.198 60.0833L311.411 130.395C332.985 151.532 363.189 207.984 311.411 264.703Z" fill="url(#paint0_linear_802_744)"/>
<path d="M168.5 407.5L81.1829 320C70.0162 296 56.8829 238.8 93.6829 202L239.183 57C239.183 57 249.1 66.1063 254.183 73C284.912 114.678 284.483 153.2 233.683 204L171.5 265.5C147.833 286.833 114.1 345.1 168.5 407.5Z" fill="url(#paint1_linear_802_744)"/>
<path d="M30.1829 128.037C50.1829 105.37 105.983 73.6371 169.183 128.037C136.16 160.825 117.598 179.161 86.1829 213.537C75.1829 226.037 58.9829 265.037 82.1829 321.037C71.6829 311.37 47.9829 288.837 37.1829 276.037C23.1829 264.037 15.3496 252.037 13.1829 247.537C0.182904 225.87 -14.6171 171.637 30.1829 128.037Z" fill="url(#paint2_linear_802_744)"/>
<path d="M195.856 38.5128L184.022 41.0284L170 22.2597C169.386 21.4377 168.595 20.764 167.686 20.2885C166.777 19.8129 165.773 19.5476 164.747 19.5121C163.722 19.4766 162.702 19.6718 161.762 20.0833C160.822 20.4948 159.987 21.1122 159.317 21.8898L144.03 39.6435L132.17 36.3075C131.033 35.9935 129.835 35.9762 128.69 36.2572C127.544 36.5383 126.49 37.1083 125.628 37.9129C124.766 38.7175 124.124 39.7298 123.764 40.853C123.405 41.9762 123.339 43.1729 123.574 44.3287L130.671 73.0047C130.913 74.0017 131.484 74.8883 132.291 75.5216C133.098 76.1548 134.095 76.4979 135.121 76.4955L189.905 78.3925C190.928 78.4659 191.946 78.1926 192.795 77.6167C193.644 77.0408 194.275 76.1958 194.585 75.2179L203.695 47.1031C203.996 45.9841 204.011 44.8072 203.737 43.6811C203.464 42.5549 202.911 41.5159 202.13 40.6598C201.349 39.8038 200.364 39.1583 199.268 38.7831C198.171 38.4079 196.998 38.3149 195.856 38.5128Z" fill="url(#paint3_linear_802_744)"/>
<path d="M121.841 31.0135C124.992 31.1226 127.636 28.6561 127.745 25.5044C127.854 22.3527 125.388 19.7093 122.236 19.6002C119.084 19.4911 116.441 21.9575 116.332 25.1092C116.223 28.2609 118.689 30.9043 121.841 31.0135Z" fill="url(#paint4_linear_802_744)"/>
<path d="M206.299 33.938C209.451 34.0472 212.094 31.5807 212.203 28.429C212.312 25.2773 209.846 22.6339 206.694 22.5248C203.542 22.4156 200.899 24.8821 200.79 28.0338C200.681 31.1855 203.147 33.8289 206.299 33.938Z" fill="url(#paint5_linear_802_744)"/>
<path d="M164.742 13.0732C167.893 13.1823 170.537 10.7158 170.646 7.56413C170.755 4.41244 168.288 1.76902 165.137 1.65989C161.985 1.55075 159.342 4.01723 159.233 7.16891C159.123 10.3206 161.59 12.964 164.742 13.0732Z" fill="url(#paint6_linear_802_744)"/>
<path d="M189.327 95.0558L134.544 93.1588C133.333 93.1169 132.188 92.5957 131.362 91.7099C130.535 90.8241 130.095 89.6462 130.137 88.4354C130.179 87.2246 130.7 86.0801 131.586 85.2536C132.471 84.427 133.649 83.9863 134.86 84.0282L189.644 85.9252C190.854 85.9672 191.999 86.4884 192.826 87.3742C193.652 88.26 194.093 89.4378 194.051 90.6486C194.009 91.8594 193.488 93.004 192.602 93.8305C191.716 94.657 190.538 95.0978 189.327 95.0558Z" fill="url(#paint7_linear_802_744)"/>
<defs>
<linearGradient id="paint0_linear_802_744" x1="339.825" y1="152.364" x2="139.205" y2="373.521" gradientUnits="userSpaceOnUse">
<stop offset="0.0206146" stop-color="#FFDB7A"/>
<stop offset="1" stop-color="#FF827A"/>
</linearGradient>
<linearGradient id="paint1_linear_802_744" x1="276" y1="87.5" x2="69" y2="315.5" gradientUnits="userSpaceOnUse">
<stop stop-color="#FF7D7C"/>
<stop offset="1" stop-color="#FF7F7A"/>
</linearGradient>
<linearGradient id="paint2_linear_802_744" x1="1.84092e-07" y1="251.537" x2="131.5" y2="98.037" gradientUnits="userSpaceOnUse">
<stop stop-color="#F43180"/>
<stop offset="1" stop-color="#E92C80"/>
</linearGradient>
<linearGradient id="paint3_linear_802_744" x1="27.2093" y1="55.1908" x2="313.762" y2="51.8273" gradientUnits="userSpaceOnUse">
<stop stop-color="#F13080"/>
<stop stop-color="#F33180"/>
<stop offset="0.0001" stop-color="#F33180" stop-opacity="0.996875"/>
<stop offset="1" stop-color="#FFD27A"/>
</linearGradient>
<linearGradient id="paint4_linear_802_744" x1="102.686" y1="26.8891" x2="143.342" y2="26.9393" gradientUnits="userSpaceOnUse">
<stop stop-color="#F13080"/>
<stop stop-color="#F33180"/>
<stop offset="0.0001" stop-color="#F33180" stop-opacity="0.996875"/>
<stop offset="1" stop-color="#FFD27A"/>
</linearGradient>
<linearGradient id="paint5_linear_802_744" x1="187.144" y1="29.8137" x2="227.801" y2="29.8639" gradientUnits="userSpaceOnUse">
<stop stop-color="#F13080"/>
<stop stop-color="#F33180"/>
<stop offset="0.0001" stop-color="#F33180" stop-opacity="0.996875"/>
<stop offset="1" stop-color="#FFD27A"/>
</linearGradient>
<linearGradient id="paint6_linear_802_744" x1="145.587" y1="8.94882" x2="186.243" y2="8.99904" gradientUnits="userSpaceOnUse">
<stop stop-color="#F13080"/>
<stop stop-color="#F33180"/>
<stop offset="0.0001" stop-color="#F33180" stop-opacity="0.996875"/>
<stop offset="1" stop-color="#FFD27A"/>
</linearGradient>
<linearGradient id="paint7_linear_802_744" x1="54.0946" y1="87.6042" x2="271.715" y2="44.6219" gradientUnits="userSpaceOnUse">
<stop stop-color="#F13080"/>
<stop stop-color="#F33180"/>
<stop offset="0.0001" stop-color="#F33180" stop-opacity="0.996875"/>
<stop offset="1" stop-color="#FFD27A"/>
</linearGradient>
</defs>
</svg>
