<svg width="19" height="19" viewBox="0 0 19 19" fill="none" xmlns="http://www.w3.org/2000/svg">
<path fill-rule="evenodd" clip-rule="evenodd" d="M0.791687 9.49984C0.791687 4.69036 4.69054 0.791504 9.50002 0.791504C14.3095 0.791504 18.2084 4.69036 18.2084 9.49984C18.2084 9.7098 18.1249 9.91116 17.9765 10.0596L10.0598 17.9763C9.75065 18.2855 9.24939 18.2855 8.94023 17.9763L1.02356 10.0596C0.875094 9.91116 0.791687 9.7098 0.791687 9.49984ZM2.58482 7.7766C2.61001 7.76172 2.63505 7.74716 2.65996 7.73293C3.12347 7.46807 3.61774 7.26878 4.10229 7.26878C4.58684 7.26878 5.08112 7.46807 5.54463 7.73293C5.87044 7.91911 6.22048 8.16088 6.59339 8.45272C7.4933 7.70293 8.46385 7.26878 9.50002 7.26878C10.5362 7.26878 11.5067 7.70293 12.4067 8.45272C12.7796 8.16088 13.1296 7.91911 13.4554 7.73293C13.9189 7.46807 14.4132 7.26878 14.8977 7.26878C15.3823 7.26878 15.8766 7.46807 16.3401 7.73293C16.365 7.74716 16.39 7.76173 16.4152 7.7766C15.6446 4.67415 12.8408 2.37484 9.50002 2.37484C6.1592 2.37484 3.35541 4.67415 2.58482 7.7766ZM16.2343 9.56264C15.9804 9.37232 15.754 9.22165 15.5545 9.10765C15.1784 8.89271 14.973 8.85211 14.8977 8.85211C14.8225 8.85211 14.6171 8.89271 14.241 9.10765C13.9164 9.29312 13.5208 9.57566 13.0509 9.96813L11.4635 14.3334L16.2343 9.56264ZM9.50002 15.0999L11.4557 9.72178C10.7304 9.09871 10.0803 8.85211 9.50002 8.85211C8.9197 8.85211 8.26964 9.09871 7.54432 9.72178L9.50002 15.0999ZM5.94914 9.96813C5.47928 9.57566 5.08365 9.29312 4.75907 9.10765C4.38294 8.89271 4.17751 8.85211 4.10229 8.85211C4.02708 8.85211 3.82165 8.89271 3.44551 9.10765C3.24601 9.22165 3.01967 9.37232 2.76575 9.56264L7.53651 14.3334L5.94914 9.96813Z" fill="#E94057"/>
</svg>
