<svg width="19" height="19" viewBox="0 0 19 19" fill="none" xmlns="http://www.w3.org/2000/svg">
<path fill-rule="evenodd" clip-rule="evenodd" d="M0.791687 9.49984C0.791687 4.69036 4.69054 0.791504 9.50002 0.791504C14.3095 0.791504 18.2084 4.69036 18.2084 9.49984C18.2084 10.3666 17.7095 10.93 17.1217 11.2706C16.5788 11.5851 15.8886 11.7577 15.2774 11.89C15.0825 11.9322 14.8938 11.9707 14.7108 12.0081C14.2726 12.0975 13.8667 12.1804 13.4841 12.2916C12.9353 12.4513 12.6207 12.6228 12.4676 12.7956L11.875 12.2707L12.4676 12.7956C12.2413 13.0511 12.0962 13.4157 12.0015 13.9133C11.934 14.2683 11.9025 14.6174 11.8683 14.9959C11.8525 15.1708 11.8361 15.352 11.8154 15.543C11.7571 16.0788 11.6602 16.736 11.3352 17.26C11.1607 17.5412 10.9179 17.7908 10.5871 17.9639C10.2607 18.1348 9.89304 18.2082 9.50002 18.2082C4.69054 18.2082 0.791687 14.3093 0.791687 9.49984ZM9.50002 2.37484C5.56499 2.37484 2.37502 5.56481 2.37502 9.49984C2.37502 13.4349 5.56499 16.6248 9.50002 16.6248C9.6968 16.6248 9.80041 16.5886 9.85279 16.5612C9.90074 16.5361 9.94424 16.4987 9.98972 16.4254C10.1045 16.2403 10.182 15.918 10.2413 15.372C10.2556 15.2408 10.2688 15.0945 10.283 14.9388C10.3203 14.528 10.3634 14.0521 10.4461 13.6175C10.5641 12.9967 10.7836 12.3088 11.2824 11.7457C11.7481 11.2201 12.4356 10.9477 13.0419 10.7713C13.4909 10.6407 13.9969 10.5374 14.4593 10.4431C14.6277 10.4087 14.7904 10.3755 14.9424 10.3426C15.562 10.2084 16.0252 10.076 16.328 9.90059C16.5858 9.75118 16.625 9.6396 16.625 9.49984C16.625 5.56481 13.4351 2.37484 9.50002 2.37484ZM9.10419 5.5415C9.10419 4.44842 9.99027 3.56234 11.0834 3.56234C12.1764 3.56234 13.0625 4.44842 13.0625 5.5415C13.0625 6.63459 12.1764 7.52067 11.0834 7.52067C9.99027 7.52067 9.10419 6.63459 9.10419 5.5415ZM11.0834 5.14567C10.8647 5.14567 10.6875 5.32287 10.6875 5.5415C10.6875 5.76013 10.8647 5.93734 11.0834 5.93734C11.302 5.93734 11.4792 5.76013 11.4792 5.5415C11.4792 5.32287 11.302 5.14567 11.0834 5.14567ZM4.35419 7.12484C4.35419 6.03175 5.24027 5.14567 6.33335 5.14567C7.42643 5.14567 8.31252 6.03175 8.31252 7.12484C8.31252 8.21792 7.42643 9.104 6.33335 9.104C5.24027 9.104 4.35419 8.21792 4.35419 7.12484ZM6.33335 6.729C6.11472 6.729 5.93752 6.90621 5.93752 7.12484C5.93752 7.34347 6.11472 7.52067 6.33335 7.52067C6.55198 7.52067 6.72919 7.34347 6.72919 7.12484C6.72919 6.90621 6.55198 6.729 6.33335 6.729ZM4.75002 12.2707C4.75002 11.1776 5.63611 10.2915 6.72919 10.2915C7.82227 10.2915 8.70835 11.1776 8.70835 12.2707C8.70835 13.3638 7.82227 14.2498 6.72919 14.2498C5.63611 14.2498 4.75002 13.3638 4.75002 12.2707ZM6.72919 11.8748C6.51056 11.8748 6.33335 12.052 6.33335 12.2707C6.33335 12.4893 6.51056 12.6665 6.72919 12.6665C6.94782 12.6665 7.12502 12.4893 7.12502 12.2707C7.12502 12.052 6.94782 11.8748 6.72919 11.8748Z" fill="#E94057"/>
</svg>
