<svg width="19" height="19" viewBox="0 0 19 19" fill="none" xmlns="http://www.w3.org/2000/svg">
<path d="M5.54165 12.271C6.59221 12.271 7.39662 12.4642 8.626 12.9856L9.07864 13.1835L9.57312 13.41L10.3003 13.7499L10.7191 13.9385C10.7856 13.9677 10.8505 13.9959 10.9139 14.0231L11.278 14.1737C12.1489 14.5204 12.744 14.646 13.4583 14.646C14.209 14.646 15.0436 14.4457 15.8857 14.1089C16.186 13.9887 16.465 13.8599 16.7144 13.7317L16.9271 13.6184L17.0093 13.5713C17.3843 13.3464 17.8706 13.4679 18.0955 13.8429C18.3205 14.2178 18.1989 14.7041 17.824 14.929L17.6094 15.0514L17.3428 15.1904C17.1 15.3119 16.807 15.4456 16.4737 15.579C15.4603 15.9843 14.4394 16.2293 13.4583 16.2293C12.4078 16.2293 11.6034 16.0361 10.374 15.5147L9.92134 15.3168L9.42685 15.0904L8.69964 14.7504L8.2809 14.5619C8.21442 14.5326 8.14952 14.5044 8.08608 14.4773L7.72202 14.3266C6.85103 13.9799 6.25597 13.8543 5.54165 13.8543C4.79098 13.8543 3.95637 14.0546 3.11432 14.3915C2.81401 14.5116 2.53494 14.6404 2.28556 14.7686L2.07288 14.8819L1.99063 14.929C1.61571 15.154 1.12942 15.0324 0.904472 14.6575C0.679522 14.2826 0.801094 13.7963 1.17601 13.5713L1.39062 13.4489L1.65722 13.3099C1.89999 13.1884 2.19297 13.0547 2.52628 12.9214C3.5397 12.516 4.56056 12.271 5.54165 12.271Z" fill="#E94057"/>
<path d="M5.54165 7.521C6.59221 7.521 7.39662 7.71419 8.626 8.23562L9.07864 8.43351L9.57312 8.65997L10.3003 8.99989L10.7191 9.18847C10.7856 9.21773 10.8505 9.24592 10.9139 9.27307L11.278 9.42374C12.1489 9.77039 12.744 9.896 13.4583 9.896C14.209 9.896 15.0436 9.69569 15.8857 9.35887C16.186 9.23875 16.465 9.10994 16.7144 8.98169L16.9271 8.86844L17.0093 8.82132C17.3843 8.59636 17.8706 8.71794 18.0955 9.09285C18.3205 9.46777 18.1989 9.95406 17.824 10.179L17.6094 10.3014L17.3428 10.4404C17.1 10.5619 16.807 10.6956 16.4737 10.829C15.4603 11.2343 14.4394 11.4793 13.4583 11.4793C12.4078 11.4793 11.6034 11.2861 10.374 10.7647L9.92134 10.5668L9.42685 10.3404L8.69964 10.0004L8.2809 9.81186C8.21442 9.7826 8.14952 9.75441 8.08608 9.72726L7.72202 9.57659C6.85103 9.22994 6.25597 9.10433 5.54165 9.10433C4.79098 9.10433 3.95637 9.30464 3.11432 9.64146C2.81401 9.76158 2.53494 9.89038 2.28556 10.0186L2.07288 10.1319L1.99063 10.179C1.61571 10.404 1.12942 10.2824 0.904472 9.90747C0.679522 9.53256 0.801094 9.04627 1.17601 8.82132L1.39062 8.69894L1.65722 8.5599C1.89999 8.43844 2.19297 8.3047 2.52628 8.17137C3.5397 7.766 4.56056 7.521 5.54165 7.521Z" fill="#E94057"/>
<path d="M5.54165 2.771C6.59221 2.771 7.39662 2.96419 8.626 3.48562L9.07864 3.68351L9.57312 3.90997L10.3003 4.24989L10.7191 4.43847C10.7856 4.46773 10.8505 4.49592 10.9139 4.52307L11.278 4.67374C12.1489 5.02038 12.744 5.146 13.4583 5.146C14.209 5.146 15.0436 4.94569 15.8857 4.60887C16.186 4.48875 16.465 4.35994 16.7144 4.23169L16.9271 4.11844L17.0093 4.07131C17.3843 3.84636 17.8706 3.96794 18.0955 4.34285C18.3205 4.71777 18.1989 5.20406 17.824 5.42901L17.6094 5.55138L17.3428 5.69043C17.1 5.81189 16.807 5.94563 16.4737 6.07896C15.4603 6.48432 14.4394 6.72933 13.4583 6.72933C12.4078 6.72933 11.6034 6.53614 10.374 6.0147L9.92134 5.81682L9.42685 5.59035L8.69964 5.25044L8.2809 5.06186C8.21442 5.0326 8.14952 5.00441 8.08608 4.97726L7.72202 4.82659C6.85103 4.47994 6.25597 4.35433 5.54165 4.35433C4.79098 4.35433 3.95637 4.55464 3.11432 4.89146C2.81401 5.01158 2.53494 5.14038 2.28556 5.26864L2.07288 5.38189L1.99063 5.42901C1.61571 5.65396 1.12942 5.53239 0.904472 5.15747C0.679522 4.78255 0.801094 4.29627 1.17601 4.07131L1.39062 3.94894L1.65722 3.8099C1.89999 3.68844 2.19297 3.55469 2.52628 3.42137C3.5397 3.016 4.56056 2.771 5.54165 2.771Z" fill="#E94057"/>
</svg>
