<svg width="19" height="19" viewBox="0 0 19 19" fill="none" xmlns="http://www.w3.org/2000/svg">
<path fill-rule="evenodd" clip-rule="evenodd" d="M9.49999 0.791504C4.69051 0.791504 0.791656 4.69036 0.791656 9.49984C0.791656 14.3093 4.69051 18.2082 9.49999 18.2082C14.3095 18.2082 18.2083 14.3093 18.2083 9.49984C18.2083 4.69036 14.3095 0.791504 9.49999 0.791504ZM12.0368 12.1278C13.1158 11.1144 14.6288 10.3285 16.5835 10.2734C16.2266 13.579 13.6088 16.207 10.3079 16.5795C10.413 14.5227 11.0248 13.0782 12.0368 12.1278ZM8.72277 16.5829C8.82987 14.2144 9.53644 12.3038 10.9528 10.9736C12.2954 9.71281 14.1854 8.74628 16.5794 8.68955C16.2053 5.38497 13.5708 2.76556 10.2592 2.41481C10.1048 4.78545 9.42697 6.70453 8.1293 8.06816C6.80987 9.45456 4.85992 10.1485 2.41655 10.2739C2.77475 13.5895 5.40757 16.2233 8.72277 16.5829ZM8.67166 2.42247C8.51992 4.4996 7.9263 5.9847 6.98232 6.97666C6.05196 7.95424 4.5755 8.56457 2.42072 8.68816C2.79277 5.40727 5.39306 2.80206 8.67166 2.42247Z" fill="#E94057"/>
</svg>
