<svg width="19" height="19" viewBox="0 0 19 19" fill="none" xmlns="http://www.w3.org/2000/svg">
<path fill-rule="evenodd" clip-rule="evenodd" d="M5.93748 4.354C5.93748 2.38649 7.53246 0.791504 9.49998 0.791504C11.4675 0.791504 13.0625 2.38649 13.0625 4.354V9.49984C13.0625 11.4674 11.4675 13.0623 9.49998 13.0623C7.53246 13.0623 5.93748 11.4674 5.93748 9.49984V4.354ZM9.49998 2.37484C8.40691 2.37484 7.52081 3.26094 7.52081 4.354V9.49984C7.52081 10.5929 8.40691 11.479 9.49998 11.479C10.593 11.479 11.4791 10.5929 11.4791 9.49984V4.354C11.4791 3.26094 10.593 2.37484 9.49998 2.37484ZM3.56248 8.31234C3.99971 8.31234 4.35415 8.66678 4.35415 9.104C4.35415 11.946 6.658 14.2498 9.49998 14.2498C12.342 14.2498 14.6458 11.946 14.6458 9.104C14.6458 8.66678 15.0003 8.31234 15.4375 8.31234C15.8747 8.31234 16.2291 8.66678 16.2291 9.104C16.2291 12.5526 13.635 15.3953 10.2916 15.7871V17.4165C10.2916 17.8537 9.93721 18.2082 9.49998 18.2082C9.06276 18.2082 8.70831 17.8537 8.70831 17.4165V15.7871C5.36496 15.3953 2.77081 12.5526 2.77081 9.104C2.77081 8.66678 3.12525 8.31234 3.56248 8.31234Z" fill="#E94057"/>
</svg>
