<svg id="Layer" height="512" viewBox="0 0 24 24" width="512" xmlns="http://www.w3.org/2000/svg"><path id="video-outgoing" d="m21.9 6.208a1.488 1.488 0 0 0 -1.587.181l-2.563 2.05v-.439a3.383 3.383 0 0 0 -3.75-3.75h-9a3.383 3.383 0 0 0 -3.75 3.75v8a3.383 3.383 0 0 0 3.75 3.75h9a3.383 3.383 0 0 0 3.75-3.75v-.439l2.563 2.05a1.486 1.486 0 0 0 .934.33 1.515 1.515 0 0 0 .653-.149 1.491 1.491 0 0 0 .85-1.353v-8.878a1.491 1.491 0 0 0 -.85-1.353zm-5.65 9.792c0 1.577-.673 2.25-2.25 2.25h-9c-1.577 0-2.25-.673-2.25-2.25v-8c0-1.577.673-2.25 2.25-2.25h9c1.577 0 2.25.673 2.25 2.25zm5 .44-3.5-2.8v-3.28l3.5-2.8zm-8.558-7.227a.751.751 0 0 1 .058.287v3a.75.75 0 0 1 -1.5 0v-1.189l-3.72 3.719a.75.75 0 0 1 -1.06-1.06l3.719-3.72h-1.189a.75.75 0 0 1 0-1.5h3a.753.753 0 0 1 .692.463z" fill="rgb(0,0,0)"/></svg>