<svg id="Layer_2" enable-background="new 0 0 32 32" height="512" viewBox="0 0 32 32" width="512" xmlns="http://www.w3.org/2000/svg"><g><path d="m19.87097 25.19354c1.86774 0 3.38708-1.51935 3.38708-3.38708v-11.61292c0-1.86774-1.51935-3.38708-3.38708-3.38708h-15.48389c-1.86773 0-3.38708 1.51935-3.38708 3.38708v11.61292c0 1.86774 1.51935 3.38708 3.38708 3.38708zm-11.30322-10.70324c-.57098-.57098-.57098-1.48065 0-2.05157.57092-.57098 1.48059-.57098 2.05164 0l1.50964 1.50964 1.5097-1.50964c.57098-.57098 1.48065-.57098 2.05157 0 .57098.57092.57098 1.48059 0 2.05157l-1.50964 1.5097 1.50964 1.50964c.57098.57092.57098 1.48065 0 2.05164-.28064.28064-.65802.42578-1.02582.42578-.36774 0-.74518-.14514-1.02576-.42578l-1.5097-1.5097-1.50964 1.5097c-.28064.28064-.65808.42578-1.02582.42578s-.74518-.14514-1.02582-.42578c-.57098-.57098-.57098-1.48071 0-2.05164l1.50971-1.50964z"/><path d="m29.95483 9.60321c-.64838-.45483-1.48065-.56128-2.22583-.28064l-3.01935 1.1322v11.09033l3.01935 1.13226c.28064.0968.56134.15485.85162.15485.48389 0 .96777-.14514 1.37421-.43549.65802-.45476 1.04517-1.1903 1.04517-1.98382v-8.8258c0-.79358-.38715-1.52906-1.04517-1.98389z"/></g></svg>