<svg width="19" height="19" viewBox="0 0 19 19" fill="none" xmlns="http://www.w3.org/2000/svg">
<path fill-rule="evenodd" clip-rule="evenodd" d="M9.49999 2.77083C7.31386 2.77083 5.54166 4.54304 5.54166 6.72917C5.54166 6.74789 5.54179 6.76657 5.54205 6.78523C5.80048 6.74828 6.06467 6.72917 6.33332 6.72917C7.51079 6.72917 8.60249 7.09639 9.50013 7.72256C10.3977 7.09651 11.4893 6.72936 12.6667 6.72936C12.9353 6.72936 13.1995 6.74848 13.4579 6.78543C13.4582 6.76671 13.4583 6.74795 13.4583 6.72917C13.4583 4.54304 11.6861 2.77083 9.49999 2.77083ZM15.0174 7.2512C15.0334 7.07935 15.0417 6.90522 15.0417 6.72917C15.0417 3.66859 12.5606 1.1875 9.49999 1.1875C6.43941 1.1875 3.95832 3.66859 3.95832 6.72917C3.95832 6.90515 3.96653 7.07922 3.98257 7.25101C2.09726 8.13542 0.791656 10.0507 0.791656 12.2708C0.791656 15.3314 3.27275 17.8125 6.33332 17.8125C7.51067 17.8125 8.60226 17.4454 9.49985 16.8193C10.3975 17.4455 11.4892 17.8127 12.6667 17.8127C15.7272 17.8127 18.2083 15.3316 18.2083 12.271C18.2083 10.0508 16.9027 8.1356 15.0174 7.2512ZM13.1177 8.33811C12.9696 8.32132 12.8192 8.3127 12.6667 8.3127C11.9456 8.3127 11.2696 8.50548 10.6874 8.84231C11.0034 9.24313 11.2653 9.68864 11.462 10.1678C12.1905 9.75123 12.7739 9.10981 13.1177 8.33811ZM11.8507 11.749C13.1039 11.1611 14.1009 10.1179 14.6286 8.83236C15.8212 9.51429 16.625 10.7988 16.625 12.271C16.625 14.4572 14.8528 16.2294 12.6667 16.2294C11.9455 16.2294 11.2695 16.0365 10.6872 15.6996C11.4311 14.7563 11.875 13.5654 11.875 12.2708C11.875 12.0948 11.8668 11.9208 11.8507 11.749ZM9.95107 10.6621C9.82939 10.3888 9.67765 10.1319 9.50007 9.89555C9.32246 10.1319 9.1707 10.3888 9.04899 10.6621C9.197 10.6789 9.34749 10.6875 9.49999 10.6875C9.65252 10.6875 9.80304 10.6789 9.95107 10.6621ZM8.70872 12.2148C8.96715 12.2517 9.23134 12.2708 9.49999 12.2708C9.76864 12.2708 10.0328 12.2517 10.2913 12.2148C10.2915 12.2334 10.2917 12.2521 10.2917 12.2708C10.2917 13.1622 9.99706 13.9847 9.49992 14.6463C9.00287 13.9847 8.70832 13.1623 8.70832 12.271C8.70832 12.2522 8.70846 12.2335 8.70872 12.2148ZM7.53803 10.1678C7.73476 9.68863 7.9967 9.24308 8.31281 8.84224C7.73052 8.50533 7.05444 8.3125 6.33332 8.3125C6.18079 8.3125 6.03028 8.32113 5.88224 8.33792C6.22597 9.10973 6.80943 9.75123 7.53803 10.1678ZM4.3713 8.8322C4.89902 10.1178 5.89607 11.1611 7.14926 11.749C7.1332 11.9209 7.12499 12.095 7.12499 12.271C7.12499 13.5655 7.56882 14.7563 8.31259 15.6996C7.73035 16.0364 7.05435 16.2292 6.33332 16.2292C4.1472 16.2292 2.37499 14.457 2.37499 12.2708C2.37499 10.7986 3.1787 9.51414 4.3713 8.8322Z" fill="#E94057"/>
</svg>
