<svg width="19" height="19" viewBox="0 0 19 19" fill="none" xmlns="http://www.w3.org/2000/svg">
<path fill-rule="evenodd" clip-rule="evenodd" d="M9.5 2.37484C8.40693 2.37484 7.52083 3.26094 7.52083 4.354V4.74984H11.4792V4.354C11.4792 3.26094 10.5931 2.37484 9.5 2.37484ZM13.0625 4.74984V4.354C13.0625 2.38649 11.4675 0.791504 9.5 0.791504C7.53248 0.791504 5.9375 2.38649 5.9375 4.354V4.74984H3.95833C3.08388 4.74984 2.375 5.45872 2.375 6.33317V16.6248C2.375 17.4993 3.08388 18.2082 3.95833 18.2082H15.0417C15.9161 18.2082 16.625 17.4993 16.625 16.6248V6.33317C16.625 5.45872 15.9161 4.74984 15.0417 4.74984H13.0625ZM11.4792 6.33317V7.12484C11.4792 7.56206 11.8336 7.9165 12.2708 7.9165C12.7081 7.9165 13.0625 7.56206 13.0625 7.12484V6.33317H15.0417V16.6248H3.95833V6.33317H5.9375V7.12484C5.9375 7.56206 6.29194 7.9165 6.72917 7.9165C7.16639 7.9165 7.52083 7.56206 7.52083 7.12484V6.33317H11.4792Z" fill="white"/>
</svg>
