<svg width="178" height="218" viewBox="0 0 178 218" fill="none" xmlns="http://www.w3.org/2000/svg">
<path d="M110.185 201H21.6874C20.6123 201 19.5476 200.789 18.5543 200.378C17.5609 199.968 16.6583 199.366 15.898 198.607C15.1378 197.849 14.5347 196.948 14.1232 195.957C13.7118 194.966 13.5 193.904 13.5 192.831V51.8943C13.5 49.7277 14.3626 47.6498 15.8981 46.1178C17.4335 44.5858 19.516 43.7251 21.6874 43.7251H82.4113L118.373 79.6067V192.831C118.373 194.997 117.51 197.075 115.975 198.607C114.439 200.139 112.357 201 110.185 201Z" fill="#E5E9F1"/>
<g filter="url(#filter0_d_24081_25854)">
<path d="M127.048 183.275H38.5498C37.4746 183.275 36.4099 183.064 35.4166 182.653C34.4232 182.243 33.5206 181.641 32.7604 180.882C32.0001 180.124 31.397 179.223 30.9855 178.232C30.5741 177.241 30.3623 176.178 30.3623 175.106V34.1692C30.3623 33.0964 30.5741 32.0341 30.9855 31.043C31.397 30.0519 32.0001 29.1513 32.7604 28.3927C33.5206 27.6341 34.4232 27.0324 35.4166 26.6218C36.4099 26.2113 37.4746 26 38.5498 26H99.2736L135.235 61.8816V175.106C135.235 176.178 135.023 177.241 134.612 178.232C134.201 179.223 133.597 180.124 132.837 180.882C132.077 181.641 131.174 182.243 130.181 182.653C129.188 183.064 128.123 183.275 127.048 183.275Z" fill="white"/>
</g>
<path d="M135.235 61.8816H107.461C105.289 61.8816 103.207 61.0209 101.671 59.4889C100.136 57.9568 99.2732 55.879 99.2732 53.7123V26L135.235 61.8816Z" fill="#A3A3A3"/>
<path d="M68.6655 104.57C72.2779 104.57 75.2063 101.648 75.2063 98.0441C75.2063 94.4398 72.2779 91.5179 68.6655 91.5179C65.0532 91.5179 62.1248 94.4398 62.1248 98.0441C62.1248 101.648 65.0532 104.57 68.6655 104.57Z" fill="#A3A3A3"/>
<path d="M96.5095 104.57C100.122 104.57 103.05 101.648 103.05 98.0441C103.05 94.4398 100.122 91.5179 96.5095 91.5179C92.8972 91.5179 89.9688 94.4398 89.9688 98.0441C89.9688 101.648 92.8972 104.57 96.5095 104.57Z" fill="#A3A3A3"/>
<path d="M103.408 128.997C102.865 128.998 102.328 128.891 101.827 128.684C101.326 128.477 100.87 128.173 100.487 127.79C95.736 123.06 89.2988 120.404 82.5875 120.404C75.8762 120.404 69.4389 123.06 64.6879 127.79C64.3043 128.172 63.8489 128.476 63.3477 128.683C62.8466 128.891 62.3094 128.997 61.7668 128.997C61.2243 128.997 60.6871 128.891 60.1859 128.684C59.6846 128.477 59.2292 128.173 58.8456 127.79C58.462 127.407 58.1577 126.953 57.9501 126.453C57.7425 125.953 57.6357 125.417 57.6357 124.875C57.6358 124.334 57.7427 123.798 57.9504 123.298C58.1581 122.798 58.4625 122.344 58.8461 121.961C65.1477 115.688 73.6858 112.165 82.5874 112.164C91.489 112.164 100.027 115.687 106.329 121.961C106.907 122.537 107.3 123.271 107.459 124.071C107.619 124.871 107.537 125.699 107.224 126.452C106.912 127.206 106.382 127.849 105.703 128.302C105.024 128.755 104.225 128.997 103.408 128.997L103.408 128.997Z" fill="#A3A3A3"/>
<path d="M127.606 143.032L120.016 150.605L148.579 179.105L156.17 171.532L127.606 143.032Z" fill="#D4D9E3"/>
<path d="M40.3265 68.132C31.9616 76.4783 26.265 87.1121 23.9572 98.6888C21.6493 110.265 22.8338 122.265 27.3608 133.17C31.8879 144.075 39.5542 153.395 49.3903 159.953C59.2264 166.511 70.7905 170.011 82.6202 170.011C94.45 170.011 106.014 166.511 115.85 159.953C125.686 153.395 133.353 144.075 137.88 133.17C142.407 122.265 143.591 110.265 141.283 98.6888C138.975 87.1121 133.279 76.4783 124.914 68.132C119.36 62.5902 112.766 58.1943 105.509 55.1951C98.2527 52.1959 90.4749 50.6523 82.6202 50.6523C74.7656 50.6523 66.9878 52.1959 59.731 55.1951C52.4743 58.1943 45.8806 62.5902 40.3265 68.132ZM117.113 144.748C110.291 151.555 101.599 156.19 92.1368 158.068C82.6743 159.946 72.8662 158.982 63.9528 155.298C55.0394 151.615 47.4209 145.376 42.0609 137.372C36.7008 129.368 33.8399 119.958 33.8399 110.332C33.8399 100.705 36.7009 91.295 42.0609 83.291C47.421 75.287 55.0394 69.0486 63.9528 65.3647C72.8663 61.6809 82.6744 60.717 92.1368 62.5951C101.599 64.4731 110.291 69.1086 117.113 75.9155C126.261 85.0432 131.401 97.4231 131.4 110.332C131.4 123.24 126.261 135.62 117.113 144.748Z" fill="#D4D9E3"/>
<path d="M133.631 156.974L133.631 156.974C128.874 161.72 128.874 169.415 133.631 174.161L151.662 192.151C156.419 196.898 164.131 196.898 168.887 192.151C173.644 187.405 173.644 179.71 168.887 174.964L150.856 156.974C146.1 152.227 138.388 152.227 133.631 156.974Z" fill="#A3A3A3"/>
<defs>
<filter id="filter0_d_24081_25854" x="0.362305" y="0" width="164.873" height="217.275" filterUnits="userSpaceOnUse" color-interpolation-filters="sRGB">
<feFlood flood-opacity="0" result="BackgroundImageFix"/>
<feColorMatrix in="SourceAlpha" type="matrix" values="0 0 0 0 0 0 0 0 0 0 0 0 0 0 0 0 0 0 127 0" result="hardAlpha"/>
<feOffset dy="4"/>
<feGaussianBlur stdDeviation="15"/>
<feComposite in2="hardAlpha" operator="out"/>
<feColorMatrix type="matrix" values="0 0 0 0 0 0 0 0 0 0 0 0 0 0 0 0 0 0 0.1 0"/>
<feBlend mode="normal" in2="BackgroundImageFix" result="effect1_dropShadow_24081_25854"/>
<feBlend mode="normal" in="SourceGraphic" in2="effect1_dropShadow_24081_25854" result="shape"/>
</filter>
</defs>
</svg>
