<svg width="340" height="351" viewBox="0 0 340 351" fill="none" xmlns="http://www.w3.org/2000/svg">
<path d="M311.411 207.703L167.919 350C113.733 288.488 145.341 231.17 167.919 210.2L239.163 140.799C289.753 81.6821 263.858 26.3589 242.198 3.08326L239.163 0C240.16 0.954136 241.174 1.98288 242.198 3.08326L311.411 73.3951C332.985 94.5316 363.189 150.984 311.411 207.703Z" fill="url(#paint0_linear_802_722)"/>
<path d="M168.5 350.5L81.1829 263C70.0162 239 56.8829 181.8 93.6829 145L239.183 0C239.183 0 249.1 9.10629 254.183 16C284.912 57.6779 284.483 96.2 233.683 147L171.5 208.5C147.833 229.833 114.1 288.1 168.5 350.5Z" fill="url(#paint1_linear_802_722)"/>
<path d="M30.1829 71.0371C50.1829 48.3704 105.983 16.6371 169.183 71.0371C136.16 103.825 117.598 122.161 86.1829 156.537C75.1829 169.037 58.9829 208.037 82.1829 264.037C71.6829 254.37 47.9829 231.837 37.1829 219.037C23.1829 207.037 15.3496 195.037 13.1829 190.537C0.182904 168.87 -14.6171 114.637 30.1829 71.0371Z" fill="url(#paint2_linear_802_722)"/>
<defs>
<linearGradient id="paint0_linear_802_722" x1="339.825" y1="95.3638" x2="139.205" y2="316.521" gradientUnits="userSpaceOnUse">
<stop offset="0.0206146" stop-color="#FFDB7A"/>
<stop offset="1" stop-color="#FF827A"/>
</linearGradient>
<linearGradient id="paint1_linear_802_722" x1="276" y1="30.5" x2="69" y2="258.5" gradientUnits="userSpaceOnUse">
<stop stop-color="#FF7D7C"/>
<stop offset="1" stop-color="#FF7F7A"/>
</linearGradient>
<linearGradient id="paint2_linear_802_722" x1="1.84092e-07" y1="194.537" x2="131.5" y2="41.037" gradientUnits="userSpaceOnUse">
<stop stop-color="#F43180"/>
<stop offset="1" stop-color="#E92C80"/>
</linearGradient>
</defs>
</svg>
